<?xml version="1.0" encoding="UTF-8"?>
<svg id="Camada_2" data-name="Camada 2" xmlns="http://www.w3.org/2000/svg" viewBox="0 0 1455.0140654537 366.5123386864">
  <defs>
    <style>
      .cls-1 {
        fill: #66b3ff;
      }

      .cls-2 {
        fill: #545454;
      }
    </style>
  </defs>
  <g id="Camada_1-2" data-name="Camada 1">
    <g>
      <g>
        <g>
          <g>
            <path class="cls-1" d="M363.4376492999,361.1671187364c2.3062605397,1.6304904447,5.1727828025,2.7072339525,7.8085920923,3.5932496565,6.008835565,2.0198436563,12.4715268625,2.1389021622,18.6510546648,.9388963085,8.4840282604-1.6475180468,16.0203995418-6.8073250454,22.0495336362-12.7995527796,3.132957523-3.1137796348,6.3650751014-6.1269691851,9.6259049699-9.1059518392,8.3062291591-7.5882869035,16.8127694082-14.9577491438,25.3631764469-22.268622262,8.0147265652-6.8528490784,16.0855810534-13.6400636608,24.1922738216-20.383805057,4.1115471889-3.4202863946,8.3279530462-6.7363314762,12.3771512656-10.2300479899,.0591861027-.0510667676,.1211219825-.0992457611,.1816318874-.148761933,1.7445898074-1.4276242708,2.7375384834-4.4510788735,2.7375384834-6.6090025341,0-2.2924007645-1.0182200016-5.0306997795-2.7375384834-6.6090025341-1.7812137111-1.6351214371-4.1197455469-2.849032609-6.6090025341-2.7375384834l-2.4846808396,.3338674781c-1.5833489224,.4440722568-2.9581228205,1.2452959253-4.1243216945,2.4036710053-6.7371015603,5.5130722786-13.4279110922,11.0835155986-20.0998007706,16.6751928555-12.6099864116,10.568366329-25.160509303,21.2197815424-37.416288101,32.1986095602-3.020310103,2.705618772-6.0209595165,5.4337936544-8.9773459331,8.2092448802-3.237768123,3.0396119585-6.280047566,6.3535943663-9.7749418037,9.098441421l1.8916243143-1.461461642c-2.4461175797,1.8817605822-5.0727905672,3.4847860615-7.9181257567,4.6879240902l2.2326973802-.9422093633c-2.2609465316,.9267620896-4.6042748631,1.5805261403-7.0254328732,1.9172627663l2.4846808396-.3338674781c-2.3749490481,.3048654332-4.7618034994,.2997874261-7.1351438744-.0165525991l2.4846808396,.3338674781c-2.3606507824-.335349252-4.66310412-.963641277-6.8649881984-1.8783523778l2.2326973802,.9422093633c-1.2755936864-.5387866844-2.5750629144-1.1456378344-3.7108707196-1.9486363429-1.8805189377-1.3294977329-5.0621509783-1.5314949405-7.2020590594-.9422093633-2.1680148292,.5970255832-4.5174964543,2.2733481698-5.5857833366,4.2952953197-1.1460586004,2.1691457221-1.7205428824,4.7969278203-.9422093633,7.2020590594,.7860051449,2.4288373576,2.2119687985,4.1129037865,4.2952953197,5.5857833366h0Z"/>
            <path class="cls-1" d="M299.2000199798,361.1671187364c2.3062605397,1.6304904447,5.1727828025,2.7072339525,7.8085920923,3.5932496565,6.008835565,2.0198436563,12.4715268625,2.1389021622,18.6510546648,.9388963085,8.4840282604-1.6475180468,16.0203995418-6.8073250454,22.0495336362-12.7995527796,3.132957523-3.1137796348,6.3650751014-6.1269691851,9.6259049699-9.1059518392,8.3062291591-7.5882869035,16.8127694082-14.9577491438,25.3631764469-22.268622262,8.0147265652-6.8528490784,16.0855810534-13.6400636608,24.1922738216-20.383805057,4.1115471889-3.4202863946,8.3279530462-6.7363314762,12.3771512656-10.2300479899,.0591861027-.0510667676,.1211219825-.0992457611,.1816318874-.148761933,1.7445898075-1.4276242708,2.7375384834-4.4510788735,2.7375384834-6.6090025341,0-2.2924007645-1.0182200016-5.0306997795-2.7375384834-6.6090025341-1.7812137111-1.6351214371-4.1197455469-2.849032609-6.6090025341-2.7375384834l-2.4846808396,.3338674781c-1.5833489224,.4440722568-2.9581228205,1.2452959253-4.1243216945,2.4036710053-6.7371015603,5.5130722786-13.4279110922,11.0835155986-20.0998007706,16.6751928555-12.6099864116,10.568366329-25.160509303,21.2197815424-37.416288101,32.1986095602-3.020310103,2.705618772-6.0209595165,5.4337936544-8.9773459331,8.2092448802-3.237768123,3.0396119585-6.280047566,6.3535943663-9.7749418037,9.098441421,.6305414381-.4871538807,1.2610828762-.9743077614,1.8916243143-1.461461642-2.4461175797,1.8817605822-5.0727905672,3.4847860615-7.9181257567,4.6879240902l2.2326973802-.9422093633c-2.2609465316,.9267620896-4.6042748631,1.5805261403-7.0254328732,1.9172627663l2.4846808396-.3338674781c-2.3749490481,.3048654332-4.7618034994,.2997874261-7.1351438744-.0165525991l2.4846808396,.3338674781c-2.3606507824-.335349252-4.66310412-.963641277-6.8649881984-1.8783523778l2.2326973802,.9422093633c-1.2755936864-.5387866844-2.5750629144-1.1456378344-3.7108707196-1.9486363429-1.8805189377-1.3294977329-5.0621509783-1.5314949405-7.2020590594-.9422093633-2.1680148292,.5970255832-4.5174964543,2.2733481698-5.5857833366,4.2952953197-1.1460586004,2.1691457221-1.7205428824,4.7969278203-.9422093633,7.2020590594,.7860051449,2.4288373576,2.2119687985,4.1129037865,4.2952953197,5.5857833366h0Z"/>
          </g>
          <circle class="cls-1" cx="532.7016442115" cy="175.7561693432" r="12.999246777"/>
          <g>
            <path class="cls-1" d="M356.0038070751,216.1826404046c-1.4693732336-.8312604862-2.9382909904-1.6633267388-4.4071730607-2.4954546778-4.0364371772-2.286658825-8.0718906192-4.5750542405-12.1066476541-6.8646762335-5.9781701288-3.3924594928-11.9547509342-6.7877198482-17.9297899726-10.1856909825-7.3754036125-4.1943506006-14.7484502606-8.3928464963-22.1187965778-12.5960776395-8.1195526746-4.6304956649-16.2358434644-9.2667138224-24.3478621489-13.9103961002-8.3029511823-4.7529805784-16.6014955692-9.5136682823-24.8933901645-14.2859138579-7.9289849261-4.5633796713-15.852104341-9.1369825436-23.7645684243-13.7289553944-6.8982570993-4.0033811192-13.7891322267-8.0196187081-20.6620143196-12.0664353826-5.3333833509-3.140345547-10.6593773225-6.2942431541-15.9482843701-9.5090918535-3.1370808756-1.9068666328-6.3019312889-3.7971667984-9.3260937392-5.8814257202-.3655251422-.2519206727-.7289234246-.5075061832-1.0805620822-.7786124758,.6305414381,.4871538807,1.2610828762,.9743077614,1.8916243143,1.461461642-.0364272317-.0282612164-.0727217599-.056681253-.108867785-.0853012782-2.0213797984-1.6005062997-3.9211656319-2.7375384834-6.6090025341-2.7375384834-2.2924007645,0-5.0306997796,1.0182200016-6.6090025341,2.7375384834-1.6351214371,1.7812137111-2.849032609,4.1197455469-2.7375384834,6.6090025341,.1033948866,2.3084305354,.8394949227,5.1061525115,2.7375384834,6.6090025341,2.8880281955,2.2867089718,5.9590607451,4.2396081945,9.0897043064,6.1747926833,4.7341665542,2.9263905341,9.516663069,5.7748648276,14.3049104373,8.6115904759,6.5189147274,3.8620336804,13.0593719995,7.6876835673,19.6075980948,11.4997641133,7.730000364,4.5000559816,15.4722964839,8.9789782505,23.2209291837,13.446864531,8.274481467,4.7710923536,16.556528189,9.5290592719,24.8433620551,14.2786614777,8.2507031036,4.7288938446,16.5062548004,9.4493265243,24.7653706365,14.1635109785,7.6589565073,4.3716221469,15.3210020232,8.737831976,22.9856441477,13.0994777308,6.4038570683,3.6441826693,12.809529219,7.2851759325,19.21698015,10.9230359022,4.5851328446,2.6032304282,9.1711569436,5.2048916099,13.7583096553,7.8045612664,2.1719305328,1.2308946872,4.3336394849,2.4826577615,6.5178903021,3.6916424849,.0921282879,.0509930873,.1833234975,.1037417261,.2749756444,.1555915941,2.1299073207,1.2049408241,4.8293609636,1.5956004034,7.2020590594,.9422093633,2.1680148292-.5970255832,4.5174964543-2.2733481698,5.5857833366-4.2952953197,2.3392665831-4.427531105,1.1922633379-10.2164267897-3.3530859564-12.787842396h0Z"/>
            <path class="cls-1" d="M307.5628116091,255.6971253287c-1.539488659-.8847543281-3.078533148-1.7702820824-4.617542864-2.6558691263-4.2050414112-2.4196924514-8.4091338404-4.8410341598-12.6125531167-7.2635433541-6.2506815742-3.6023847703-12.4998166152-7.2074531609-18.7474501562-10.8151215447-7.6764635551-4.4327399624-15.3506536495-8.8694177259-23.0222339827-13.3106036982-8.4824696383-4.9106212191-16.9617691415-9.8267208749-25.4369045962-14.7499898147-8.6688420294-5.0357945233-17.3333966486-10.0789774875-25.9914619965-15.1332798939-8.2358482437-4.8078255273-16.466033077-9.6253803502-24.6859061838-14.4604739361-7.1581850987-4.2105874882-14.3092417454-8.4334128353-21.4428873652-12.6854670705-5.5227979375-3.2918983661-11.0384985917-6.5965965712-16.5182485128-9.9598091957-3.2409837188-1.9891632859-6.5102444887-3.9599171464-9.6397935137-6.1229395106-.3709768701-.25640476-.7400540609-.5162011858-1.0970891633-.7918337831l1.8916243143,1.461461642c-.0347452181-.0269846195-.069369539-.0541142426-.1038580554-.0814262051-2.0211588813-1.6005853952-3.9213627954-2.7375384834-6.6090025341-2.7375384834-2.2924007645,0-5.0306997796,1.0182200016-6.6090025341,2.7375384834-1.6351214371,1.7812137111-2.849032609,4.1197455469-2.7375384834,6.6090025341,.1034001026,2.3085469896,.839550972,5.1059583554,2.7375384834,6.6090025341,2.9427638918,2.3304179351,6.0773012719,4.3266928031,9.2598748498,6.3110610353,4.9169685779,3.065781829,9.8813727276,6.0557473123,14.8512181091,9.0347649727,6.7926033465,4.071612651,13.606235248,8.1081249073,20.4273820216,12.1316974883,8.0303378776,4.7368350767,16.0725532395,9.4535235075,24.1208748234,14.1597287071,8.6027570042,5.0304078088,17.212820311,10.0483165214,25.8275089808,15.0582609633,8.6506194487,5.0308402876,17.3059947938,10.0535011831,25.9648576746,15.0701390721,7.9363782699,4.5980559431,15.8757126542,9.1910091966,23.8175319613,13.7796606818,6.6945274351,3.8679869272,13.3908206056,7.7329179713,20.0888449064,11.5948463545,4.7915124502,2.7626770372,9.5838912584,5.5238519569,14.3773672085,8.2831208293,2.2603627764,1.3011327718,4.510051565,2.623622417,6.7831543368,3.9024532551,.0968063286,.0544625258,.1926326945,.1107375736,.2889389482,.1660854154,2.1128924637,1.2142932923,4.8454364458,1.5911735545,7.2020590594,.9422093633,2.1680148292-.5970255832,4.5174964543-2.2733481698,5.5857833366-4.2952953197,2.3526419774-4.452846721,1.1751719566-10.1854225834-3.3530859564-12.787842396h0Z"/>
            <path class="cls-1" d="M262.3888711719,295.5986404996c-1.6050018072-.9399257847-3.209577679-1.880579364-4.8141203124-2.8212886763-4.3835102877-2.5699591037-8.7661109066-5.1414698668-13.1480665737-7.7140787356-6.5149920669-3.8248963807-13.0285019454-7.652317533-19.5405712896-11.4821878553-7.9994973651-4.7046546854-15.9968185374-9.413010236-23.9916344601-14.1256160352-8.8025930129-5.1887562243-17.6021734668-10.3826251726-26.3977952752-15.5831902669-9.0284550993-5.3382318463-18.0528067927-10.6834103648-27.070944297-16.0390554596-8.5752694217-5.0926368768-17.1451190506-10.1944233849-25.7050929136-15.3127334958-7.4504739128-4.4549009809-14.8941337179-8.9213003159-22.3210938177-13.4153132604-5.7402706472-3.4734063798-11.4737611491-6.9587818536-17.1728038893-10.4995506586-3.3567436426-2.0855174664-6.7404914972-4.1521089913-9.9900379519-6.4034785511-.3810851764-.2640256349-.7604389153-.5311816329-1.1280105247-.8138539572l1.8916243143,1.461461642c-.0419294593-.0324209551-.0836859839-.0650513351-.1252336915-.0979597982-2.0208956148-1.6006796225-3.9215977548-2.7375384834-6.6090025341-2.7375384834-2.2924007645,0-5.0306997796,1.0182200016-6.6090025341,2.7375384834-1.6351214371,1.7812137111-2.849032609,4.1197455469-2.7375384834,6.6090025341,.1034063185,2.3086857663,.8396177942,5.1057269813,2.7375384834,6.6090025341,3.0072158956,2.3819088772,6.2140751415,4.4317370668,9.456409858,6.4760233455,5.09635549,3.2132430827,10.2384818952,6.3541276224,15.3857396218,9.4849355898,7.0573759108,4.2926330688,14.134980414,8.5519933062,21.2197747438,12.7991878076,8.3537456387,5.0079057896,16.7189064549,9.9967604157,25.0899128214,14.9757524619,8.9925873495,5.3487022859,17.9922529768,10.6855005584,26.9963776654,16.014755424,8.9755645542,5.3123510309,17.9556526207,10.6170579956,26.9390590278,15.9161366099,8.3032781841,4.8978886026,16.6094158827,9.7909292302,24.9179535937,14.6798903163,6.9760452148,4.10488762,13.9537824799,8.206899827,20.9331782409,12.3060880337,4.993930244,2.9330705211,9.9886908704,5.8647276048,14.9845025288,8.7945924845,2.3566284308,1.3820782979,4.7005542042,2.7894752941,7.0722704607,4.1456067333,.1012081623,.057870148,.2012440637,.1178820088,.3018507487,.1767995857,4.2218257471,2.4723977633,10.4315225868,1.1067217986,12.787842396-3.3530859564,2.3687585085-4.4833504879,1.1543489725-10.1481853603-3.3530859564-12.787842396h0Z"/>
          </g>
          <path class="cls-1" d="M2.7106045843,231.9808086044c7.7595996424,6.1175907057,16.6421747069,10.9413412377,25.0730552114,16.0450433248,15.6239773304,9.4581017567,31.3322564083,18.7772616385,47.0500501351,28.0783286257,18.1869589543,10.7622053367,36.4011234297,21.4784242968,54.6274955156,32.1737235036,15.3139515982,8.9862806272,30.6372786551,17.9565871114,45.96833387,26.9136557378,7.0179826436,4.100210408,13.9796979634,8.326191779,21.0718560123,12.2976945284,4.8945511157,2.7408756374,9.9103424214,5.2852287184,14.8678670645,7.9114968267,6.0019641275,3.1795640182,12.2245370898,6.5360510394,18.7688318456,8.4334698494,6.8625865929,1.9897026911,13.8743990827,2.0165547737,20.8706666439,.8801979409,14.1525604414-2.2987055054,27.0222914532-10.8480931247,38.2411579113-19.3149675852,15.032531494-11.3450460845,28.9870597-24.0083698674,43.3879585736-36.1239960115,24.5822863074-20.6813333864,51.586905634-38.9793034094,74.2229943408-61.8796789844,7.9862040113-8.0794466591,17.0391023159-17.9263510076,19.5951580196-29.3813468139,1.3184775261-5.9087736274,.9219874577-12.1329565168-2.4678762864-17.3264873425-3.7359660951-5.7237861295-9.4534555969-9.8024932315-15.3219563004-13.1262750737-6.8359780038-3.8717384066-14.1175516152-6.944308011-21.3381891561-10.0123617318-8.7793857905-3.7303668946-17.0746218203-7.124201552-26.3950434989-11.4115692857-9.6924580721-4.4585034273-19.2215461551-9.3237032577-28.2101229709-15.0877509255-2.3368607809-1.4985438975-4.6359697486-3.0565679674-6.8863832883-4.6821811013-.5694232092-.4113296651-1.1356231349-.8271082325-1.6985515656-1.2472790832-.2778301037-.2073729175-1.9025936166-1.3647704023-.7383409292-.5484110353,1.2203876118,.8557204713-.6748331085-.53843319-.9599366953-.7673854836-.6317972747-.507364487-1.2586431565-1.020957664-1.8799832583-1.5410756153-4.2906691256-3.5916787418-8.330440923-7.4955477703-11.9550854179-11.7619671888-.4617294186-.5434826395-.9171369261-1.0923354545-1.3647918009-1.6474829584-.1913917463-.2373494765-.3734389729-.4852929036-.5711089507-.7173138782-.6770722226-.7947335187,.5682807571,.6968540184,.5266668311,.6826501149-.8023171215-.2738514734-2.1743997812-3.0121941642-2.6573751936-3.7375377993-1.529957188-2.2977250599-2.9302990491-4.6824314353-4.1733455911-7.1475520519-.3240115388-.6425564106-.6369805753-1.2906340075-.9391286236-1.9437437298-.1297665564-.2804975908-.2528614088-.564292463-.384188975-.8440257177-.5198329775-1.1072661654-.3148341945,.1366737633,.2107303977,.5229615546-.7536818844-.5539530531-1.2294189623-3.2330092922-1.5145548006-4.0988358644-.9319486811-2.8299000811-1.6537522621-5.7292923596-2.1551912158-8.6662370538-.0543051659-.3180671702-.0818127114-.6529817664-.1560318796-.966648458-.2520600859-1.0652619143,.1153241967,.885911693,.1051295041,.8582491962-.2478904944-.6726313622-.1833784465-1.5931253941-.2462531103-2.3127314821-.1379651598-1.5790234564-.2148897889-3.1624926805-.2334445839-4.7474113559-.0177873818-1.5193675506,.0190579495-3.0394433111,.1076534369-4.5563337645,.0490138879-.8391928392,.1151576645-1.6772286594,.1948665141-2.5140302447,.0346297793-.3635512796,.0771554488-.7262727294,.111915034-1.0897804622,.2280578571-2.3849765204-.2346148714,1.3027928525,.0016344702-.0900061681,.591701999-3.4883566618,1.2825054194-6.9286245183,2.2602371428-10.3330763429,.542942972-1.8905218551,1.149377003-3.7633955888,1.8122495247-5.6152208734,.2950502768-.8242634064,.6010861957-1.6446949634,.9170713921-2.4611587541,.2147941083-.5549994553,.4361530192-1.107463054,.6593104852-1.6591351223,.210809761-.5211470578,.520706636-1.1880441037,.1197825828-.2837000113,2.0544594777-4.6341402492,4.4778995017-9.067557167,7.3747969679-13.2316403834,.3577094072-.5141817259,.7212980125-1.024271807,1.0913153182-1.5296761644,.2183048948-.2981813103,1.5430347941-2.073409398,.5639777637-.7695716616-.9292215472,1.2374704241,.2101017853-.2478170973,.4389506658-.529043425,.4532854954-.5570305392,.9140764553-1.10784069,1.3821731836-1.6524831269,1.645924846-1.9150753781,3.3817282061-3.7522450713,5.1965817625-5.5079811255,1.766815578-1.7092628772,3.6082016148-3.3412130978,5.5145250022-4.8933134559,.3292801672-.2680950508,1.9863297842-1.5512516094,.7797551868-.6367386241-1.2718998691,.9640257211,.5686392188-.4185870029,.8170721526-.6013003308,1.0441789458-.7679553883,2.1049179088-1.513586879,3.1805359175-2.2368372291,4.308463514-2.897030098,8.8567952058-5.4319015731,13.5668720575-7.6141397987,.6106859615-.282938536,1.224058325-.5600637469,1.8401555995-.8310265585,1.2673821493-.5574013143,1.0776383694-.1124939432-.1001718875,.0321903813,1.2770018658-.1568691997,2.8630187451-1.1447629878,4.0799115516-1.5914709037,2.5008182866-.9180227863,5.034999801-1.7448783295,7.5949658908-2.4819932352,2.7038913021-.7785566342,5.4366087633-1.4572695792,8.1895838968-2.0387312883,1.2960796992-.2737477385,2.5967700377-.5255122911,3.9011556426-.756406397,.9116737106-.1613787254,3.9014578367-.1357911049,4.5724395105-.7209762724,.0006386097-.0005569525-1.9902818421,.2393114073-.9441868554,.1307885767,.309642858-.0321226274,.618586264-.0770031393,.9277740401-.1135482418,.7245822892-.0856435349,1.4499331263-.1646720086,2.1758981309-.2376347198,1.4624942379-.1469871744,2.9273840892-.2689035504,4.3940612584-.3656033392,2.9766327141-.196252973,5.9599326667-.2896167328,8.9430052448-.2821345246,2.9329188164,.0073564113,5.8654465958,.1103340576,8.7917241227,.3078243637,1.5397235629,.1039137522,3.0777860615,.2338254779,4.6131647363,.3892219892,.6628045443,.0670828087,1.3251669291,.1389375781,1.9869437659,.2154964488,.9483996373,.1097173566,2.9800225791,.1310263024,.8387739025,.0908284026,3.0625261266,.057493144,6.3821914446,1.0083138302,9.3721793653,1.6309953833,3.0573208908,.6367040173,6.0939215288,1.3724131408,9.1045142242,2.2023049279,3.1904820167,.8794795877,6.3511023349,1.865618411,9.4770371254,2.9523444874,1.475607461,.5129925011,2.9433744452,1.0486181417,4.4026192725,1.6064691076,.7924091486,.3029280629,1.582201523,.6126630283,2.3695024929,.9286190987,.3387446959,.1359434919,.675795867,.276385032,1.015097671,.4109013526,1.6666763219,.6607544193-.9228641089-.4208627421,.1344950359,.0498872218,6.3251207111,2.8160255305,12.5070343429,5.8516295039,18.4765409274,9.3693624191,3.1510822732,1.8568814146,6.2413812294,3.8170861241,9.2664949353,5.8727604603,1.4336424553,.9742119766,2.8524038235,1.9702858166,4.2564833901,2.9866252794,.6543948259,.4736820488,1.3054976731,.9518345096,1.9533624767,1.4344091601,.4341068457,.3233528942,.8615608586,.656102556,1.2980626059,.9761080369,1.153183387,.8454147243-1.0784396194-.858332897,.0489445427,.0325771284,13.1522611245,10.3935124216,24.3976012852,22.4076316602,35.0322703257,35.3212011598,2.96852238,3.6046462678,5.9097994698,7.2317690129,8.8166116985,10.8863805436,1.425970263,1.792811835,2.8436690562,3.592188651,4.2520219537,5.3988745481,.2949907119,.3784247258,.5896058866,.7571398711,.8838792447,1.1361228621-.1279185413-.1647412178-.6562395078-.8519664155-.0113398112-.0155285744,.758715053,.9840568761,1.5133623657,1.9712561192,2.2654276778,2.9604021965,4.7403482596,6.2346937302,9.3597462666,12.5631885229,13.7859669943,19.0252096301,7.0768196526,10.3317391474,13.7215546354,21.0231631195,19.1786830022,32.3084251139,.2654595173,.5489664161,3.1111253007,6.8477656558,3.1137090032,6.8468594489-.0834799256,.0292797201-.8330989085-2.0408536341-.3250661827-.7563519035,.0968928042,.2449821997,.1995260957,.4878550817,.2982849587,.7321016046,.2277200851,.5631883284,.4519274115,1.1277973115,.6717924792,1.6941016093,.4283353716,1.1032592141,.8416265027,2.2124247828,1.2380139002,3.3275661913,1.4401611965,4.051550063,2.6605380188,8.1834422774,3.5885128101,12.3829053627,.4357686926,1.9720304426,.7903106602,3.9563279053,1.1077476325,5.9503899094,.1297499394,.8150576229,.1141723631,2.5646185695-.0722618373-.6133181067,.0241598367,.4118258941,.103124039,.8272803826,.1496688885,1.2374907242,.1079357543,.9512623435,.1997168143,1.9044196042,.2750641968,2.8588185925,.2921135673,3.7001005688,.333586089,7.418150892,.1430722823,11.1245991754-.0901675367,1.7542104566-.2320493572,3.5056189148-.4192384649,5.2520998651-.0484937639,.4524485205-.0999467595,.9045781527-.1544541809,1.3563425631-.0529622686,.4389579879-.2869921351,2.2294049123-.0323232074,.3065789843,.2445228019-1.8462196695,.0408847101-.3134867018-.0247335594,.112677391-.0795221554,.5164642028-.1565865672,1.0332038927-.2400012301,1.5490670674-.5830693332,3.6058887839-1.3299895319,7.1835633924-2.1714948315,10.7374913476-.9184294769,3.8788017073-1.8937795264,7.7624207094-3.0309730535,11.5834432222-.3595626757,1.2081471147-.7599439042,2.4040914925-1.1936405263,3.5875797486-.2391533499,.6526109881-.4977851272,1.2969300863-.7464518172,1.9458513551-.5565851901,1.4524662221,.771337229-1.6704565437-.1225785036,.2822609205-1.2308225701,2.6886748274-2.5473871675,5.325260578-4.0059635199,7.8986448868-3.1047761008,5.4777948971-6.6899790227,10.6560143159-10.486336472,15.6735478186-.9994388166,1.3209287621,.9302216269-1.1599616265-.5289176144,.6715855999-.4535291259,.5692808398-.9054645504,1.1397248722-1.3627344633,1.7060254314-1.1562624837,1.4319597083-2.3313561637,2.8486839771-3.5227982631,4.2515025081-2.1837565051,2.5711816748-4.4223380938,5.0956135693-6.7027020509,7.5814245988-9.435835697,10.2859477211-19.5616624806,19.9238040559-29.9334735208,29.2567727609-8.8773407469,7.9881848072-17.9785695571,15.7180726801-27.0250711177,23.5124186503-3.3700408608,2.9035825868-6.7404936555,5.8112892957-10.0092804212,8.8291795762-1.4095438467,1.3013539823-2.7511789375,2.6739592817-4.1592024169,3.9756453664-.3244668028,.2999622722-2.450613284,1.9849270994-1.2598037427,1.1309820454-.6952571519,.498577972-1.4054319035,.9769637643-2.13632917,1.4219385385-.8152815054,.4963484205-1.6540455722,.9532212559-2.5114529852,1.372285238-.3567611005,.1743695298-.7162535563,.3418732508-1.0786224007,.5043364915,1.7923842277-.8035915743,.1258029746-.1035675982-.2797601758,.0341967614-1.5116804429,.51349756-3.0482154254,.8355517578-4.601985308,1.1809754637-.548163398,.1218640125-1.7378600596,.0895956215,.4133046924-.0355572354-.340000117,.0197809052-.6772118541,.0780311167-1.0176575476,.096217958-.6657245439,.0355634597-1.3284302772,.0878670782-1.9954446277,.1033136179-1.471023507,.0340655685-2.9244871743-.05128159-4.3898026564-.1646368578-.2383588554-.0184391909-.6539493003-.1489346503-.8838999928-.0944421973-.0110556788,.0026199141,2.029966162,.3593097631,1.0677226942,.1371507568-.6125145233-.1414149562-1.2487234009-.2096913258-1.8661222201-.3360243581-1.8385837179-.3762136388-3.6553589989-.8755323952-5.4233846331-1.5056625622-.3275622076-.1167442511-.6499158963-.2490845331-.9777073864-.3646839339-1.457299189-.5139331499,1.0169438903,.4487619492,1.3187890962,.5679192797-.1895697804-.0748351424-.375994916-.1639535333-.5593900875-.2528666412-4.3924799145-2.1295491975-10.3058050112-1.3446675209-12.787842396,3.3530859564-2.2141981798,4.1908140715-1.3437479493,10.5107371913,3.3530859564,12.787842396,9.410209878,4.5622302855,20.6824668587,5.8055866798,30.8263774323,3.2861976511,12.0992484343-3.0050258763,20.1360837558-12.3574187884,29.1660488991-20.2058236359,19.3092391113-16.7826479323,38.9877348573-33.1602721538,56.607057198-51.7665240733,9.6585961056-10.1996131778,18.8837547446-21.0771340731,26.345424747-33.0093357245,5.9421218543-9.5022422836,9.9007263934-19.6259044394,12.6473112857-30.4476963855,4.0507114119-15.9601679368,5.9235152101-31.9319718124,3.2956551693-48.2780293019-3.3523457816-20.8525705403-13.8477684605-40.319840849-25.1452616758-57.8702084742-8.966285694-13.9288961862-18.9703576648-27.1757511727-29.2676993526-40.1402418837-10.9320899329-13.7636472291-22.0368799012-27.4492200037-35.2175037273-39.1482129517-21.9039764635-19.4417555314-48.259992537-34.2391257875-76.9759128981-40.6452297097-24.3616072896-5.4347200454-50.4538866522-5.2288205765-74.2586219172,2.7249935709-21.4902428672,7.1804788353-40.8356034068,20.3386014457-53.4851716305,39.3546547063-7.4339938946,11.1754979568-12.4196019651,24.5599745508-14.278825766,37.8270768472-2.0120982817,14.3579883823-.1668792051,28.3153238775,5.8690091418,41.5197199359,9.8223736701,21.4878912131,30.0703697689,36.8823534082,50.2277766354,48.0529386769,12.9848417551,7.1957808356,26.6865541282,12.9702036343,40.3484696034,18.7323125461,2.2808705266,.961989877,2.1871995242,.9192085403,4.6081063752,1.9492475429,2.1575621617,.9179920227,4.3119814178,1.8435157333,6.4575332298,2.7892850972,3.6262753192,1.5984792736,7.2333890206,3.2479905199,10.7595001294,5.0584548969,2.8715520187,1.474384237,5.7045976886,3.0505402751,8.3685717798,4.8782033799,.3249429359,.2229324291,2.0489112791,1.7360772567,1.0780834586,.7467221568-.9587705608-.9770677395,.5411747547,.476953014,.8656618461,.7692669561,.4100936397,.3694325341,.8120001957,.7492986958,1.1973165301,1.1446121965,.2409344211,.2471855484,.4686782029,.5357763219,.7210979256,.7734199335,.9331862121,.8785594858-.4730037705-.39261088-.4992679296-.7142785886,.0263788919,.3230728873,.7466461391,1.0833312883,.9331549632,1.4027695131,.1157659797,.1982752247,.2118035063,.4208609477,.3393476409,.6110426365,.7797517619,1.1626917017-.4940807597-.8104907299-.385723726-.9897326588-.0522126052,.0863689947,.3342678256,1.1386950071,.3949808619,1.2717746958,.5224414074,1.1451632811-.1953667743-.9014891758-.1054991627-1.1818037051-.0684650668,.2135558366,.0612050811,.6005250729,.0579999161,.832902617-.0063854209,.4629491587-.0082829751,.9265305042-.0158580965,1.389553353-.0231351679,1.4141174503-.7845215883,.9560485448,.1290999403-.6547499041-.4339749861,.7651376556-.4463195175,2.075361868-.7239144933,2.9420690113-.1630406046,.50904544-.3864133906,1.002629933-.5401366239,1.5130961827-.0763495644,.2535327613,.9891072109-2.0653674092,.0839655285-.2485441812-.5353838727,1.0746360207-1.0829834358,2.1364923512-1.6934091174,3.1714255221-.6584385603,1.1163355797-1.36562283,2.2041512509-2.1040608732,3.2690899222-.3336295955,.4811440329-.6744922215,.9574099458-1.0208615595,1.4294583743-.1197669729,.1632240651-.6061495171,.9414470985-.718731191,.9620978979,.2239311904-.0410755849,1.2267501971-1.5354663445,.3276798723-.4351366252-9.02422802,11.0443265782-19.8866855911,20.4542598695-30.8257859861,29.542456254-12.9749226384,10.7795559738-26.3562384648,21.0570694909-39.4930223924,31.6362585407-14.4029807709,11.598870568-28.162767592,23.9503265421-42.4165521105,35.726246037-1.5849544616,1.3094274098-3.1774773506,2.6097197362-4.7809629625,3.8964038633-.8405156447,.6744545325-1.684227427,1.3449178138-2.5312596629,2.0111680273-.3582798617,.2818122195-.717114275,.5629071262-1.0764932134,.8433173217,1.006901318-.7856481424-.1886480597,.1440079329-.5995156897,.456451097-3.0599205483,2.3269082012-6.173043496,4.5863780642-9.370548527,6.7210818072-3.0369845747,2.0275378071-6.150758921,3.9454057764-9.3698554273,5.6711061866-1.5009081947,.8046102011-3.025624455,1.5666925114-4.5753037135,2.2730057052-.836774712,.3813853842-1.8794658138,.7358969985-.3539478251,.1737628562-.8596856166,.3167833092-1.7041699553,.671181552-2.5685979909,.9766324558-1.4645941161,.5175232386-2.9512718016,.9758567625-4.456868869,1.3585885065-.5981913627,.1520638081-4.0430702874,1.2903891651-4.4162950598,.8892109224-.0186251756-.0200201481,2.453860762-.2255915693,.6020859935-.1031899099-.3133565165,.0207127553-.6260002991,.0564395933-.9393126682,.0791610528-.7281484777,.0528054356-1.4575311832,.0868472288-2.1876011837,.0968384053-.4448986937,.0060885413-4.3712942537-.13932808-4.3608421508-.2079900965,.0098100953-.0644445362,2.4307699199,.4256958445,.6197169219,.0765124194-.3100057367-.0597712298-.6219380454-.1087606511-.9319286116-.1690094384-.7294578521-.141775124-1.4545873618-.3048291415-2.1737798318-.4921169736-1.4811362971-.3857087186-2.9184182819-.8873131095-4.3483314705-1.4298164473-.1893307708-.0718313363-1.2531282713-.5488444713-.1945250624-.0756350595,1.173722322,.5246691535-.3330516425-.1627100571-.6095746751-.2882553665-.7224228126-.327990022-1.4408006916-.6646667716-2.1567764546-1.0064831593-1.7060270822-.814480105-3.3973387242-1.659733935-5.0793206041-2.5226910407-7.8066381035-4.0052713433-15.5495380915-8.1312888459-23.1278040289-12.5517165551-11.5930614264-6.7622712619-23.1805660203-13.534073697-34.7637897155-20.3131813746-17.5897707959-10.2944528559-35.1694435473-20.6061932643-52.7328221547-30.9456158195-17.8531854278-10.5100295461-35.6928686761-21.0434161972-53.4866848212-31.6537219295-12.6391903084-7.536644882-25.3025647981-15.0494545533-37.7678436832-22.8721950796-1.6196904802-1.01645687-3.2365977371-2.0382707162-4.8338724918-3.0897309905-.5658596096-.3724962776-1.1314935759-.746085041-1.6874005283-1.1333636475-.2189208209-.1525135638-.4330052175-.3148550078-.6550991599-.4625858001-1.2315772784-.8192113891,1.5084044718,1.1791580213,1.3334864572,1.041254409-3.8311486178-3.020439231-9.5293473334-4.0182261597-13.2180050683,0-3.0929648448,3.3693102326-4.1003808053,9.985305875,0,13.2180050683h0Z"/>
        </g>
        <path class="cls-1" d="M531.6588056051,170.3062923704s-4.9220407635-10.5353669184-20.0792564982-10.8287175315c0,0,32.2724463647-4.2130333571,33.7096516086,16.5886199451l-13.6303951104-5.7599024136Z"/>
      </g>
      <g>
        <g>
          <path d="M669.3807807236,191.7561693432c-4.0654634785,0-7.6791365121-3.3879404426-7.6791365121-7.6791365121V47.4349805922c0-4.2911960695,3.6136730336-7.678811249,7.6791365121-7.678811249h38.3950320342c31.8458595292,0,46.0748190724,15.809738206,46.0748190724,40.2018685509,0,14.9064825792-9.2602404379,27.1025477516-21.9084213185,30.7162207852,16.2618539141,4.0654634785,28.9093842684,15.8100634691,28.9093842684,37.7178342613,0,26.1992921248-16.4869359788,43.3640764026-46.2999011372,43.3640764026h-45.1709129194Zm7.3208634879-86h30.2584189453c19.9484776064,0,30.4830814116-10.3102641299,30.4830814116-26.0001613955,0-16.1379310345-9.6385362674-25.9998386045-30.4830814116-25.9998386045h-30.2584189453v52Zm0,71h36.9498729447c20.3783522294,0,30.679114561-10.9731821644,30.679114561-29.1120699721,0-18.363027752-11.6443119832-28.8879300279-30.679114561-28.8879300279h-36.9498729447v58Z"/>
          <path d="M796.7016442115,94.4383378267v58.6544379509c0,14.6514743726,4.7336331657,27.2743879406,27.5,27.2743879406s27.5-12.622913568,27.5-27.2743879406l-.000004489-58.2819470304c-.0000002662-3.3492456456,2.1067419309-6.4695005027,5.3347649227-7.3624248887,4.508176382-1.2470359221,8.6652395662,2.1525217691,8.6652395662,6.7399339683v58.8652578013c0,21.4513681342-7.0001083977,41.0966133453-42,41.0966133453-34.7742075352,0-42-19.6452452112-42-41.0966133453l-.0000101639-58.5092437162c-.000000421-2.5297161874,1.2027320927-4.9637874998,3.3284191557-6.335253321,5.3091524056-3.425396518,11.6715910081,.5533111017,11.6715910081,6.2292392359Z"/>
          <path d="M891.4988677136,57.3425029194c0-6.5339899339,3.1539147916-9.0123439646,8.5616456471-9.0123439646s8.5616456471,2.4783540306,8.5616456471,9.0123439646c0,5.4074063787-3.1539147916,8.561970124-8.5616456471,8.561970124s-8.5616456471-3.1545637452-8.5616456471-8.561970124Z"/>
          <path d="M950.7016442115,37.9660445148V166.6172140494c0,9.0123439646,2.8441044104,12.8424684707,8.7503150315,12.8424684707,3.5,0,6.5621062106,2.9290523481,6.5621062106,6.759501331,0,3.8301245061-3.0621062106,6.7591768542-6.5621062106,6.7591768542-14.6565256526,0-22.7503150315-9.0123439646-22.7503150315-26.3611466559l-.0000024482-128.5505186252c-.000000065-3.4133709081,2.3051198909-6.5381475616,5.6573686942-7.1812097023,4.5619430641-.8751178818,8.342633754,2.8246889196,8.342633754,7.0805587929Z"/>
          <path d="M1055.7016442115,100.376567029l-.0000026355-62.3014775277c-.0000001658-3.9185319049,3.0794632702-7.317833159,6.997995027-7.3189102321,3.9382297742-.0010824874,7.0020076085,3.1535397904,7.0020076085,7.2098652456v111.7530651606c0,29.7405728446-17.9378937894,44.3858345851-42.8751575157,44.3858345851-28.2186318632,0-44.8434743474-17.3488026914-44.8434743474-54.2995751845,0-36.9504480163,15.7496849685-54.0740637874,43.9683168317-54.0740637874,14,0,24.7186318632,7.4353865688,29.7503150315,14.6452617404Zm-1,18.2498748494s-8.5616456471-19.827156722-29.7408973215-19.827156722c-20.5030419598,0-31.7682285579,13.2931667881-31.7682285579,41.0060839195,0,28.1636154489,11.0399996778,41.2315953167,31.7682285579,41.2315953167,17.3484782146,0,29.7408973215-9.9134161226,29.7408973215-31.3178547172v-31.0926677969Z"/>
          <path d="M1138.4296293755,85.4009582554c36.0493758582,0,43.0340641096,28.6143137663,43.0340641096,43.9354607445,0,6.5336654571,0,14.4197503433-9.0120194877,14.4197503433h-65.7902731797c0,22.3055107527,12.8421439939,36.725261096,34.0213956682,36.725261096,13.0679798678,0,20.7282288801-4.9570325381,27.0373563705-9.6882292023,1.4642218223-.9763821945,2.3992601032-1.4239615552,4.5247439063-1.3427292623,2.9148550112,.111400687,5.6992215702,2.6356226456,6.0092050533,5.5360881409,.3342490833,3.1275148071-.9019112443,4.6493406991-2.4233261067,6.1707555615-3.3791017119,3.3797506655-15.0953111042,12.6172815504-35.1479792234,12.6172815504-29.9660842418,0-48.6663329318-16.4474060565-48.6663329318-54.2995751845,0-34.6972809059,17.1232912943-54.0740637874,46.4131658215-54.0740637874Zm0,13.6852614182c-19.6016453249,0-30.4164580824,12.6172815504-31.7682285579,32.6699496696h60.6077292445c0-16.2222191362-5.6329177759-32.6699496696-28.8395006866-32.6699496696Z"/>
          <path d="M1217.7016442115,104.2066915352c4.3151437692-10.2219505671,15.0136044828-17.8140200856,29.7874775537-18.0203817206,3.8740905374-.0541133428,7.2971482572,2.9204158028,7.3976638235,6.7935801895,.1015707738,3.9138246785-3.0000126644,7.1711656279-6.7789307562,7.1711656279-20.1248424842,0-30.4062106211,14.4197503433-30.4062106211,35.1483037002l.0000025983,50.360081186c.0000002022,3.9185319104-3.0794632275,7.3178331881-6.9979949898,7.3189102612-3.9382297742,.0010824873-7.0020076085-3.1535397904-7.0020076085-7.2098652456l-.0000028682-91.3661754988c-.000000123-3.9191069267,3.0804076641-7.3186291537,6.9995145815-7.3188994004,3.9381285329-.0002715584,7.0004882866,3.1540609745,7.0004882866,7.2098647781v9.9134161226Z"/>
          <path d="M1282.8613190083,110.3797109386c-2.1996519523,2.4140859112-3.7562737383,3.1179733777-5.7139994922,3.152849705-3.5146502075,.0626124936-6.5547470467-2.6662210791-6.6987838864-6.1784767352-.0724218723-1.7659657845,.3950364255-2.975106963,1.121726468-4.1842481415,6.3232520325-9.9134161226,18.5170731707-17.7995010088,37.4855284553-17.7995010088,26.1938211382,0,40.6458536586,15.3211469782,40.6458536586,38.3025429686l.0000074044,61.7007644555c.0000003947,3.2889307393-2.1607524679,6.3077234297-5.3640013546,7.0535531542-4.5334066436,1.0555375331-8.6360060498-2.4306549441-8.6360060498-6.7944934129v-8.1109473297c-5.6455284553,10.5896258372-18.7427642276,16.2222191362-32.2913821138,16.2222191362-23.9362601626,0-39.0660162602-11.4906979952-39.0660162602-32.2192513521,0-19.827156722,15.1297560976-31.7685530347,39.517398374-31.7685530347h31.84v-6.0832916165c0-15.3208225013-10.1619512195-24.7838647833-26.6458536586-24.7838647833-11.9681300813,0-19.1941463415,3.6049375858-26.1944715447,11.4906979952Zm52.8403252033,41.8395006866v-9.463042282h-31.7688775115c-14.6449372636,0-24.7835403065,6.0836160933-24.7835403065,19.1512714843,0,11.7162093923,8.1106228529,19.1512714843,25.6849369414,19.1512714843,15.7715208188,0,30.8674808766-9.6882292023,30.8674808766-28.8395006866Z"/>
          <path d="M1390.7016442115,37.9660445148V166.6172140494c0,9.0123439646,2.8441044104,12.8424684707,8.7503150315,12.8424684707,3.5,0,6.5621062106,2.9290523481,6.5621062106,6.759501331,0,3.8301245061-3.0621062106,6.7591768542-6.5621062106,6.7591768542-14.6565256526,0-22.7503150315-9.0123439646-22.7503150315-26.3611466559l-.0000024482-128.5505186252c-.000000065-3.4133709081,2.3051198909-6.5381475616,5.6573686942-7.1812097022,4.5619430641-.8751178818,8.342633754,2.8246889196,8.342633754,7.0805587929Z"/>
          <path d="M1439.7016442115,37.9660445148V166.6172140494c0,9.0123439646,2.8441044104,12.8424684707,8.7503150315,12.8424684707,3.5,0,6.5621062106,2.9290523481,6.5621062106,6.759501331,0,3.8301245061-3.0621062106,6.7591768542-6.5621062106,6.7591768542-14.6565256526,0-22.7503150315-9.0123439646-22.7503150315-26.3611466559l-.0000024482-128.5505186252c-.000000065-3.4133709081,2.3051198909-6.5381475616,5.6573686942-7.1812097022,4.5619430641-.8751178818,8.342633754,2.8246889196,8.342633754,7.0805587929Z"/>
        </g>
        <path d="M906.7016442115,185.7684855337c0,4.0563254552-3.0637778343,7.2109477329-7.0020072359,7.2098604193-3.9185327728-.0010818755-6.9979941667-3.4003854898-6.9979941667-7.3189184119V94.4023334051c0-3.9185329221,3.0794613939-7.3178365364,6.9979941667-7.3189184119,3.9382294016-.0010873136,7.0020072359,3.1535349641,7.0020072359,7.2098604193v91.4752101211Z"/>
      </g>
      <g>
        <path class="cls-2" d="M723.7016442115,335.7561693432l-.0955449112-39.728573413-19.5379593913,32.728573413h-6.9231062693l-19.4433894282-31.8772746215v38.8772746215h-15v-67h12.7702093755l24.9683259101,41.6357915914,24.5862776087-41.6357915914h12.6751871057l.1900445396,67h-14.1900445396Z"/>
        <path class="cls-2" d="M798.7016442115,306.6105657519v29.1456035913h-14v-6.360886113c-2.780680138,4.6520932956-8.1508132085,7.1201327218-15.7259733859,7.1201327218-12.0818137013,0-19.2745194677-6.6453596174-19.2745194677-15.4742851566,0-9.0192251391,6.4248398226-15.2849614521,22.1508132085-15.2849614521h11.8905864958c0-6.3603981653-3.8353868901-10.0629452523-11.8905864958-10.0629452523-5.4657466732,0-11.122720552,1.8034546697-14.8624938393,4.7467551478l-5.3701330705-10.3483946521c5.657959586-3.9870205914,14-6.1705865131,22.2464268112-6.1705865131,15.7259733859,0,24.8358797437,7.2152825217,24.8358797437,22.6895676783Zm-15,13.3707012475v-5.2250976562h-10.1650390625c-6.9345703125,0-9.1201171875,2.5654296875-9.1201171875,5.9853515625,0,3.705078125,3.134765625,6.1748046875,8.3603515625,6.1748046875,4.9404296875,0,9.21484375-2.2797851562,10.9248046875-6.9350585938Z"/>
        <path class="cls-2" d="M843.7016442115,283.9964037182v13.6877633718c-1.2409332409-.0957207207-2.1961769462-.190950566-3.3428620929-.190950566-8.2133287133,0-13.6571379071,4.4885654886-13.6571379071,14.3257103257v23.9372424934h-15v-51h14v6.7451171875c3.6976162694-4.9399414062,9.924654109-7.5048828125,18-7.5048828125Z"/>
        <path class="cls-2" d="M873.8111928144,315.7542300072l-7.1095486028,7.015027466v12.9869118701h-15v-70h15v39.4760066874l21.6131836637-20.4760066874h17.6325770241l-21.2341246716,21.6136708861,23.1294196322,29.3863291139h-17.9161404347l-16.115366611-20.001939336Z"/>
        <path class="cls-2" d="M962.407698899,314.7561693432h-38.666015625c1.4248046875,6.365234375,6.83984375,10.2602539062,14.6298828125,10.2602539062,5.416015625,0,9.310546875-1.6147460938,12.8251953125-4.9399414062l7.8857421875,8.5502929688c-4.75,5.4150390625-11.875,8.2646484375-21.0908203125,8.2646484375-17.669921875,0-29.1650390625-11.1147460938-29.1650390625-26.3149414062,0-15.2954101562,11.685546875-26.3154296875,27.265625-26.3154296875,15.009765625,0,26.599609375,10.0698242188,26.599609375,26.5053710938,0,1.1401367188-.189453125,2.7548828125-.2841796875,3.9897460938Zm-38.85546875-9h25.1748046875c-1.044921875-6.4599609375-5.8896484375-10.6401367188-12.5400390625-10.6401367188-6.7451171875,0-11.58984375,4.0849609375-12.634765625,10.6401367188Z"/>
        <path class="cls-2" d="M1006.2416771605,332.8562669994c-3.0771004942,2.1850585938-7.5963756178,3.2299804688-12.2125205931,3.2299804688-12.2125205931,0-19.3275123558-6.1748046875-19.3275123558-18.3349609375v-20.9951171875h-8v-11h8v-12h15v12h12v11h-12v20.8051757812c0,4.3701171875,2.4039538715,6.7451171875,6.4428336079,6.7451171875,2.2121911038,0,4.4233937397-.6650390625,6.0583196046-1.8999023438l4.0388797364,10.4497070312Z"/>
        <path class="cls-2" d="M1012.091292649,269.4104662182c0-4.6547851562,3.705078125-8.2651367188,9.21484375-8.2651367188,5.5107421875,0,9.21484375,3.4204101562,9.21484375,7.98046875,0,4.9399414062-3.7041015625,8.5498046875-9.21484375,8.5498046875-5.509765625,0-9.21484375-3.6098632812-9.21484375-8.2651367188Zm1.6103515625,15.345703125h15v51h-15v-51Z"/>
        <path class="cls-2" d="M1094.7016442115,306.5593697253v29.1967996179h-15v-26.98046875c0-8.2651367188-3.8652874358-12.0649414062-10.533926489-12.0649414062-7.247786464,0-12.466073511,4.3701171875-12.466073511,13.7749023438v25.2705078125h-14v-51h14v5.9723716265c3.9802102025-4.3606400764,9.9505255063-6.7304896107,16.8676749551-6.7304896107,12.0351192002,0,21.1323250449,7.0145402436,21.1323250449,22.5613183664Z"/>
        <path class="cls-2" d="M1161.7016442115,284.7561693432v42.560546875c0,19.0004882812-10.3841591987,27.7407226562-29.0382841328,27.7407226562-9.8069319979,0-19.3262387981-2.375-25.3841591987-7.0302734375l5.9620453347-10.6401367188c4.4231022667,3.5151367188,11.6344886663,5.794921875,18.2686478651,5.794921875,10.5768977333,0,15.1917501318-4.75,15.1917501318-13.96484375v-2.140625s-9.5908203125,6.3647460938-16.240234375,6.3647460938c-14.1552734375,0-25.5556640625-9.78515625-25.5556640625-24.7001953125s11.400390625-24.7001953125,25.5556640625-24.7001953125c7.125,0,13.0146484375,2.375,17.240234375,7.3149414062v-6.599609375h14Zm-14.900390625,23.9848632812c0-7.5048828125-5.60546875-12.5400390625-13.3955078125-12.5400390625s-13.490234375,5.03515625-13.490234375,12.5400390625c0,7.5053710938,5.7001953125,12.5400390625,13.490234375,12.5400390625s13.3955078125-5.0346679688,13.3955078125-12.5400390625Z"/>
        <path class="cls-2" d="M1197.9086754615,329.3562669994l5.224609375-11.58984375c5.60546875,4.0849609375,13.9658203125,6.9350585938,21.9453125,6.9350585938,9.1201171875,0,12.8251953125-3.0400390625,12.8251953125-7.1254882812,0-12.4448242188-38.6650390625-3.8950195312-38.6650390625-28.5952148438,0-11.3051757812,9.1201171875-20.7099609375,28.025390625-20.7099609375,8.3603515625,0,16.91015625,1.9946289062,23.0849609375,5.8896484375l-4.75,11.685546875c-6.1748046875-3.5151367188-12.5400390625-5.2250976562-18.4306640625-5.2250976562-9.119140625,0-12.634765625,3.419921875-12.634765625,7.6000976562,0,12.2548828125,38.666015625,3.7998046875,38.666015625,28.2153320312,0,11.1147460938-9.2158203125,20.615234375-28.2158203125,20.615234375-10.544921875,0-21.185546875-3.1352539062-27.0751953125-7.6953125Z"/>
        <path class="cls-2" d="M1314.7016442115,284.7561693432v51h-14v-6.0668927633c-3.9238756117,4.4551612133-9.6670205329,6.8250107476-15.9847751223,6.8250107476-12.9218300924,0-22.0152248777-7.2040697397-22.0152248777-22.9403773585v-28.8177406257h15v26.6953125c0,8.5502929688,3.7774738607,12.3505859375,10.2919662946,12.3505859375,6.7979000309,0,11.7080337054-4.3701171875,11.7080337054-13.775390625v-25.2705078125h15Z"/>
        <path class="cls-2" d="M1326.1567223365,269.4104662182c0-4.6547851562,3.705078125-8.2651367188,9.21484375-8.2651367188s9.21484375,3.4204101562,9.21484375,7.98046875c0,4.9399414062-3.705078125,8.5498046875-9.21484375,8.5498046875s-9.21484375-3.6098632812-9.21484375-8.2651367188Zm1.544921875,15.345703125h15v51h-15v-51Z"/>
        <path class="cls-2" d="M1390.2416771605,332.8562669994c-3.0771004942,2.1850585938-7.5963756178,3.2299804688-12.2125205931,3.2299804688-12.2125205931,0-19.3275123558-6.1748046875-19.3275123558-18.3349609375v-20.9951171875h-8v-11h8v-12h15v12h12v11h-12v20.8051757812c0,4.3701171875,2.4039538715,6.7451171875,6.4428336079,6.7451171875,2.2121911038,0,4.4233937397-.6650390625,6.0583196046-1.8999023438l4.0388797364,10.4497070312Z"/>
        <path class="cls-2" d="M1446.048323899,314.7561693432h-38.666015625c1.4248046875,6.365234375,6.83984375,10.2602539062,14.6298828125,10.2602539062,5.416015625,0,9.310546875-1.6147460938,12.8251953125-4.9399414062l7.8857421875,8.5502929688c-4.75,5.4150390625-11.875,8.2646484375-21.0908203125,8.2646484375-17.669921875,0-29.1650390625-11.1147460938-29.1650390625-26.3149414062,0-15.2954101562,11.685546875-26.3154296875,27.265625-26.3154296875,15.009765625,0,26.599609375,10.0698242188,26.599609375,26.5053710938,0,1.1401367188-.189453125,2.7548828125-.2841796875,3.9897460938Zm-38.85546875-9h25.1748046875c-1.044921875-6.4599609375-5.8896484375-10.6401367188-12.5400390625-10.6401367188-6.7451171875,0-11.58984375,4.0849609375-12.634765625,10.6401367188Z"/>
      </g>
    </g>
  </g>
</svg>